<?xml version="1.0" standalone="no"?>
<!DOCTYPE svg PUBLIC "-//W3C//DTD SVG 20010904//EN"
 "http://www.w3.org/TR/2001/REC-SVG-20010904/DTD/svg10.dtd">
<svg version="1.0" xmlns="http://www.w3.org/2000/svg"
 width="700.000000pt" height="700.000000pt" viewBox="0 0 700.000000 700.000000"
 preserveAspectRatio="xMidYMid meet">
<metadata>
Created by potrace 1.14, written by Peter Selinger 2001-2017
</metadata>
<g transform="translate(0.000000,700.000000) scale(0.100000,-0.100000)"
fill="#000000" stroke="none">
<path d="M3727 5423 c-1 0 -36 -4 -78 -7 -86 -6 -121 -11 -239 -33 -47 -8 -96
-17 -110 -20 -59 -10 -233 -57 -334 -90 -210 -68 -393 -154 -600 -281 -54 -34
-102 -59 -106 -57 -4 2 -22 7 -41 10 -19 3 -41 8 -49 10 -8 2 -35 7 -60 10
-25 3 -52 8 -60 10 -103 29 -503 67 -695 67 -470 0 -694 -130 -603 -350 28
-69 71 -124 199 -257 65 -69 119 -129 119 -135 0 -16 51 -58 123 -102 37 -22
80 -54 95 -70 15 -16 84 -58 154 -94 70 -36 196 -111 280 -167 151 -101 294
-190 353 -219 138 -68 681 -347 723 -371 28 -17 52 -38 52 -47 0 -17 -278
-166 -355 -190 -22 -7 -89 -35 -150 -62 -202 -91 -330 -145 -384 -163 -70 -23
-144 -93 -139 -132 8 -68 96 -81 308 -48 30 5 181 22 270 30 36 3 83 8 105 10
22 2 85 7 140 10 55 3 114 8 130 10 17 2 66 7 110 10 44 4 101 10 126 14 25 4
55 4 65 0 24 -8 171 -300 213 -422 42 -122 74 -247 86 -342 2 -16 7 -46 10
-65 19 -125 20 -405 1 -610 -21 -223 -29 -676 -14 -830 12 -124 37 -244 71
-347 l32 -98 1763 -3 1764 -2 -7 302 c-4 167 -8 321 -8 342 l-2 39 -94 18
c-165 32 -357 103 -593 221 -76 37 -161 78 -190 89 -29 12 -64 25 -78 31 l-25
10 30 26 c48 43 56 70 35 128 -16 47 -96 213 -137 284 -65 114 -160 267 -215
347 -34 51 -105 153 -156 228 -97 141 -117 190 -44 111 23 -25 44 -46 47 -46
2 0 11 13 20 30 32 61 78 61 81 -1 1 -16 10 -39 19 -49 28 -31 57 -24 87 20
15 22 32 40 36 40 35 0 110 -114 260 -390 48 -90 84 -155 122 -225 34 -60 108
-186 258 -433 45 -73 96 -162 114 -198 37 -74 90 -134 118 -134 35 0 53 29 46
74 -15 92 -206 435 -615 1104 -44 74 -81 137 -81 140 -1 4 -9 25 -20 47 -22
46 -25 72 -8 77 41 14 186 -26 340 -93 114 -50 189 -69 280 -70 91 -1 135 -19
208 -86 30 -28 72 -66 93 -86 77 -70 96 -50 53 55 l-23 57 21 3 c41 6 26 127
-23 180 -35 37 -36 77 -2 185 39 127 41 139 46 328 4 175 0 225 -21 225 -30 0
-141 -227 -168 -343 -9 -38 -40 -129 -69 -203 l-52 -134 -35 -1 c-99 -4 -212
1 -270 12 -226 42 -444 177 -552 343 -21 33 -38 63 -38 67 0 4 -27 55 -60 113
-33 58 -60 113 -60 123 0 9 -17 44 -39 77 -21 34 -45 73 -52 89 -92 186 -181
355 -216 410 -73 112 -79 133 -88 297 -3 58 -7 114 -9 125 -2 11 -7 40 -11 65
-56 350 -235 805 -375 957 -71 77 -104 114 -165 188 -174 210 -249 248 -560
280 -158 16 -423 34 -428 28z m346 -147 c42 -4 110 -13 150 -22 39 -8 78 -15
85 -16 13 -1 13 -21 -2 -243 -2 -27 -7 -93 -11 -145 -9 -130 -8 -130 -58 -130
-23 0 -48 -4 -55 -8 -7 -5 -32 -46 -55 -93 -26 -52 -49 -85 -61 -87 -16 -3
-17 2 -11 56 4 40 3 62 -5 67 -6 4 -34 -18 -65 -50 -47 -48 -57 -55 -74 -45
-11 5 -23 15 -26 20 -9 15 -62 12 -95 -5 -37 -19 -40 -19 -68 8 -20 18 -24 19
-33 7 -10 -15 -8 -49 5 -85 5 -11 -9 -1 -31 22 -89 99 -157 83 -80 -19 92
-121 128 -179 125 -200 -3 -19 -7 -17 -47 25 -25 26 -51 47 -58 47 -8 0 -27
-16 -44 -35 -17 -19 -39 -35 -50 -35 -10 0 -46 25 -80 55 -58 52 -209 152
-209 138 0 -3 -8 1 -17 9 -10 8 -58 37 -108 65 -49 28 -115 65 -145 82 -98 56
-273 139 -370 176 -132 50 -150 58 -150 70 0 18 235 129 415 197 141 52 437
139 525 153 47 8 139 17 205 21 66 4 121 7 122 8 5 4 309 -2 376 -8z m391
-356 c2 -24 0 -55 -4 -69 -6 -18 -9 -4 -9 48 -1 79 8 92 13 21z m-2944 16 c14
-2 45 -7 70 -10 51 -6 233 -40 300 -55 25 -5 56 -12 70 -14 31 -6 184 -45 225
-57 182 -56 261 -86 288 -110 67 -58 379 -215 452 -227 21 -3 41 -1 50 7 18
15 58 6 99 -23 84 -58 181 -140 271 -230 55 -54 116 -107 136 -118 33 -16 226
-86 305 -110 45 -13 106 -70 137 -128 23 -42 25 -51 12 -51 -20 0 -143 51
-285 118 -58 27 -132 62 -165 77 -33 15 -121 57 -195 93 -463 221 -793 346
-1310 496 -478 139 -716 207 -735 210 -11 3 -49 11 -85 20 -94 23 -156 20
-215 -8 -36 -18 -54 -22 -67 -15 -36 20 -12 41 87 78 147 55 230 69 385 65 80
-2 156 -6 170 -8z m3269 -296 c0 -27 -3 -50 -7 -50 -4 0 -8 23 -9 50 0 28 3
50 7 50 4 0 8 -22 9 -50z m-3747 -57 c21 -14 52 -28 70 -32 18 -4 34 -13 34
-21 1 -8 2 -20 3 -26 2 -15 72 -84 86 -84 7 0 25 16 39 35 15 19 32 35 39 35
7 0 35 -21 62 -46 28 -24 73 -58 100 -75 28 -16 79 -56 115 -90 65 -61 122
-96 150 -94 32 3 73 -29 197 -153 117 -116 194 -174 210 -158 4 3 2 22 -4 41
-17 53 2 42 55 -32 70 -99 109 -140 140 -146 15 -4 46 -24 70 -47 47 -44 53
-46 82 -28 16 10 23 9 45 -12 34 -32 49 -60 38 -70 -4 -4 -30 0 -58 10 -60 21
-559 231 -594 250 -13 7 -135 86 -271 175 -431 285 -609 431 -673 553 -20 38
-34 72 -30 75 3 4 18 -3 32 -14 14 -11 43 -31 63 -46z m3745 -18 c0 -8 -4 -15
-9 -15 -4 0 -8 7 -8 15 0 8 4 15 8 15 5 0 9 -7 9 -15z m-894 -86 c36 -30 52
-79 25 -79 -17 0 -100 89 -93 100 10 17 29 11 68 -21z m217 -234 c9 -17 10
-29 3 -36 -22 -22 -57 15 -46 49 7 20 29 14 43 -13z m-290 -20 c0 -27 -9 -32
-28 -13 -18 18 -14 38 8 38 15 0 20 -7 20 -25z m1345 -243 c38 -263 36 -447
-6 -405 -6 6 -13 49 -15 95 -6 142 -13 210 -28 293 -13 76 -13 100 0 155 6 25
7 25 21 -8 7 -19 20 -77 28 -130z m-1252 -352 c6 -24 -4 -32 -143 -115 -173
-104 -473 -255 -607 -306 -39 -15 -26 10 32 64 58 52 65 70 40 103 -37 49 -4
70 120 79 176 13 235 24 274 52 14 10 55 34 91 52 73 38 104 63 128 103 l16
28 22 -21 c12 -11 24 -29 27 -39z m97 -402 c19 -13 36 -31 38 -41 5 -25 -101
-126 -185 -176 -138 -82 -330 -125 -388 -87 -22 14 -26 23 -20 44 16 66 146
157 351 247 94 40 157 44 204 13z m-1352 -397 c30 -16 28 -27 -9 -40 -44 -15
-59 -14 -102 9 -40 21 -47 20 -84 -13 -12 -11 -44 -26 -70 -32 -41 -11 -51
-10 -65 2 -21 19 -16 28 24 49 73 38 254 53 306 25z m187 9 c-3 -5 -17 -10
-30 -10 -13 0 -27 5 -30 10 -4 6 8 10 30 10 22 0 34 -4 30 -10z"/>
</g>
</svg>
